<svg id="visual" viewBox="0 0 1920 750" width="1920" height="750" xmlns="http://www.w3.org/2000/svg" xmlns:xlink="http://www.w3.org/1999/xlink" version="1.1"><rect x="0" y="0" width="1920" height="750" fill="#fff"></rect><defs><linearGradient id="grad1_0" x1="60.9%" y1="100%" x2="100%" y2="0%"><stop offset="-1.1999999999999993%" stop-color="#ffffff" stop-opacity="1"></stop><stop offset="101.2%" stop-color="#ffffff" stop-opacity="1"></stop></linearGradient></defs><defs><linearGradient id="grad2_0" x1="0%" y1="100%" x2="39.1%" y2="0%"><stop offset="-1.1999999999999993%" stop-color="#ffffff" stop-opacity="1"></stop><stop offset="101.2%" stop-color="#ffffff" stop-opacity="1"></stop></linearGradient></defs><g transform="translate(1920, 750)"><path d="M-450 0C-410 -48.3 -370 -96.7 -343.7 -142.4C-317.4 -188.1 -304.8 -231.1 -280.7 -280.7C-256.6 -330.3 -220.9 -386.4 -172.2 -415.7C-123.5 -445 -61.7 -447.5 0 -450L0 0Z" fill="#4d1adb"></path></g><g transform="translate(0, 0)"><path d="M450 0C433.5 53.4 417.1 106.7 399.1 165.3C381.2 223.9 361.7 287.7 318.2 318.2C274.7 348.7 207.1 345.8 150 362.2C93 378.6 46.5 414.3 0 450L0 0Z" fill="#4d1adb"></path></g></svg>