<svg id="visual" viewBox="0 0 1920 750" width="1920" height="750" xmlns="http://www.w3.org/2000/svg" xmlns:xlink="http://www.w3.org/1999/xlink" version="1.1"><rect x="0" y="0" width="1920" height="750" fill="#fff"></rect><defs><linearGradient id="grad1_0" x1="60.9%" y1="100%" x2="100%" y2="0%"><stop offset="-1.1999999999999993%" stop-color="#ffffff" stop-opacity="1"></stop><stop offset="101.2%" stop-color="#ffffff" stop-opacity="1"></stop></linearGradient></defs><defs><linearGradient id="grad2_0" x1="0%" y1="100%" x2="39.1%" y2="0%"><stop offset="-1.1999999999999993%" stop-color="#ffffff" stop-opacity="1"></stop><stop offset="101.2%" stop-color="#ffffff" stop-opacity="1"></stop></linearGradient></defs><g transform="translate(1920, 750)"><path d="M-675 0C-620.4 -69.3 -565.8 -138.6 -541.4 -224.3C-516.9 -309.9 -522.6 -412 -477.3 -477.3C-432 -542.5 -335.6 -570.9 -247.6 -597.8C-159.5 -624.6 -79.8 -649.8 0 -675L0 0Z" fill="#4d1adb"></path></g><g transform="translate(0, 0)"><path d="M675 0C667.4 89.4 659.7 178.8 623.6 258.3C587.5 337.9 522.9 407.6 451.8 451.8C380.8 496.1 303.3 514.9 226.9 547.9C150.6 580.8 75.3 627.9 0 675L0 0Z" fill="#4d1adb"></path></g></svg>