<svg id="visual" viewBox="0 0 1920 750" width="1920" height="750" xmlns="http://www.w3.org/2000/svg" xmlns:xlink="http://www.w3.org/1999/xlink" version="1.1"><rect x="0" y="0" width="1920" height="750" fill="#fff"></rect><defs><linearGradient id="grad1_0" x1="60.9%" y1="100%" x2="100%" y2="0%"><stop offset="-1.1999999999999993%" stop-color="#ffffff" stop-opacity="1"></stop><stop offset="101.2%" stop-color="#ffffff" stop-opacity="1"></stop></linearGradient></defs><defs><linearGradient id="grad2_0" x1="0%" y1="100%" x2="39.1%" y2="0%"><stop offset="-1.1999999999999993%" stop-color="#ffffff" stop-opacity="1"></stop><stop offset="101.2%" stop-color="#ffffff" stop-opacity="1"></stop></linearGradient></defs><g transform="translate(1920, 750)"><path d="M-450 0C-448.4 -62.4 -446.7 -124.7 -415.7 -172.2C-384.8 -219.7 -324.4 -252.3 -273.7 -273.7C-222.9 -295 -181.8 -305.1 -137.8 -332.6C-93.8 -360.1 -46.9 -405.1 0 -450L0 0Z" fill="#4d1adb"></path></g><g transform="translate(0, 0)"><path d="M450 0C403.9 41.1 357.7 82.3 343.7 142.4C329.6 202.5 347.7 281.5 318.2 318.2C288.7 354.9 211.7 349.1 150.8 364C89.8 378.9 44.9 414.5 0 450L0 0Z" fill="#4d1adb"></path></g></svg>