<svg id="visual" viewBox="0 0 900 600" width="900" height="600" xmlns="http://www.w3.org/2000/svg" xmlns:xlink="http://www.w3.org/1999/xlink" version="1.1"><rect x="0" y="0" width="900" height="600" fill="#FFFFFF"></rect><defs><linearGradient id="grad1_0" x1="33.3%" y1="100%" x2="100%" y2="0%"><stop offset="20%" stop-color="#ffffff" stop-opacity="1"></stop><stop offset="80%" stop-color="#ffffff" stop-opacity="1"></stop></linearGradient></defs><defs><linearGradient id="grad2_0" x1="0%" y1="100%" x2="66.7%" y2="0%"><stop offset="20%" stop-color="#ffffff" stop-opacity="1"></stop><stop offset="80%" stop-color="#ffffff" stop-opacity="1"></stop></linearGradient></defs><g transform="translate(900, 600)"><path d="M-324.5 0C-288.7 -28.8 -253 -57.6 -243 -100.6C-233 -143.7 -248.8 -200.9 -229.5 -229.5C-210.1 -258 -155.5 -257.8 -111.4 -268.8C-67.2 -279.9 -33.6 -302.2 0 -324.5L0 0Z" fill="#4d1adb"></path></g><g transform="translate(0, 0)"><path d="M324.5 0C306.2 35.4 287.9 70.8 276.2 114.4C264.5 158.1 259.5 209.9 229.5 229.5C199.5 249 144.6 236.2 102.2 246.7C59.8 257.1 29.9 290.8 0 324.5L0 0Z" fill="#4d1adb"></path></g></svg>