<svg id="visual" viewBox="0 0 900 600" width="900" height="600" xmlns="http://www.w3.org/2000/svg" xmlns:xlink="http://www.w3.org/1999/xlink" version="1.1"><rect x="0" y="0" width="900" height="600" fill="#FFFFFF"></rect><defs><linearGradient id="grad1_0" x1="33.3%" y1="100%" x2="100%" y2="0%"><stop offset="20%" stop-color="#ffffff" stop-opacity="1"></stop><stop offset="80%" stop-color="#ffffff" stop-opacity="1"></stop></linearGradient></defs><defs><linearGradient id="grad2_0" x1="0%" y1="100%" x2="66.7%" y2="0%"><stop offset="20%" stop-color="#ffffff" stop-opacity="1"></stop><stop offset="80%" stop-color="#ffffff" stop-opacity="1"></stop></linearGradient></defs><g transform="translate(900, 600)"><path d="M-243.4 0C-227.7 -26.1 -212.1 -52.2 -203.3 -84.2C-194.4 -116.2 -192.4 -154.1 -172.1 -172.1C-151.8 -190.1 -113.2 -188.2 -81.5 -196.8C-49.8 -205.4 -24.9 -224.4 0 -243.4L0 0Z" fill="#4d1adb"></path></g><g transform="translate(0, 0)"><path d="M243.4 0C214.9 20.7 186.3 41.5 179.2 74.2C172.1 107 186.5 151.8 172.1 172.1C157.7 192.4 114.6 188.1 81.1 195.9C47.7 203.7 23.8 223.5 0 243.4L0 0Z" fill="#4d1adb"></path></g></svg>