<svg id="visual" viewBox="0 0 900 600" width="900" height="600" xmlns="http://www.w3.org/2000/svg" xmlns:xlink="http://www.w3.org/1999/xlink" version="1.1"><g><g transform="translate(534 498)"><path d="M17.2 -18.5C21.2 -17.1 22.8 -10.7 21.2 -5.8C19.7 -0.8 15.1 2.6 12 5.8C8.8 9.1 7.2 12.1 4.1 14.7C1.1 17.3 -3.4 19.4 -6.4 18.1C-9.4 16.8 -10.9 12 -15.5 7.4C-20 2.7 -27.6 -1.7 -28.6 -6.5C-29.5 -11.3 -23.8 -16.4 -17.9 -17.5C-12 -18.6 -6 -15.7 0.3 -16.1C6.6 -16.4 13.1 -19.9 17.2 -18.5Z" stroke="#4d1adb" fill="none" stroke-width="5"></path></g><g transform="translate(128 342)"><path d="M8.2 -10C11.1 -7.2 14.5 -5.2 14.5 -2.9C14.4 -0.6 11 1.9 8.9 4.7C6.7 7.6 5.9 10.8 4.1 11.5C2.4 12.2 -0.4 10.4 -2.7 8.9C-5 7.4 -6.9 6.2 -7.6 4.6C-8.3 3 -7.8 0.8 -8.2 -2.3C-8.7 -5.5 -10.2 -9.7 -9 -12.8C-7.8 -15.8 -3.9 -17.8 -0.7 -17C2.6 -16.2 5.2 -12.7 8.2 -10Z" stroke="#4d1adb" fill="none" stroke-width="5"></path></g><g transform="translate(821 272)"><path d="M2.1 -2.8C2.7 -2 3.2 -1.3 3.5 -0.5C3.7 0.3 3.7 1.2 3.2 1.6C2.7 2 1.7 2 1 2C0.2 2 -0.3 2.1 -1.3 2.3C-2.4 2.5 -4 2.9 -4.5 2.4C-5 2 -4.4 0.7 -3.6 -0.1C-2.9 -0.9 -2.1 -1.2 -1.5 -2C-0.8 -2.8 -0.4 -4 0.2 -4.2C0.7 -4.4 1.5 -3.6 2.1 -2.8Z" stroke="#4d1adb" fill="none" stroke-width="5"></path></g><g transform="translate(650 285)"><path d="M15.3 -17C18 -15.9 17.3 -9.4 15.8 -4.7C14.3 0 12.1 2.8 11.1 8.1C10.1 13.4 10.3 21 7.5 23.2C4.7 25.3 -1 22 -5.1 18.5C-9.2 15.1 -11.6 11.6 -13.4 8C-15.1 4.4 -16.2 0.7 -15.9 -3.1C-15.5 -6.8 -13.7 -10.5 -10.8 -11.6C-8 -12.7 -4 -11.2 1.1 -12.6C6.2 -13.9 12.5 -18.1 15.3 -17Z" stroke="#4d1adb" fill="none" stroke-width="5"></path></g><g transform="translate(271 309)"><path d="M2.5 -3.2C2.9 -2.6 2.9 -1.5 3 -0.6C3.1 0.4 3.4 1.3 3.3 2.3C3.2 3.3 2.6 4.5 1.7 5C0.7 5.6 -0.7 5.6 -2 5.2C-3.4 4.9 -4.7 4.2 -5.4 3.1C-6.1 2 -6.1 0.4 -5.4 -0.5C-4.7 -1.4 -3.2 -1.7 -2.2 -2.3C-1.2 -2.8 -0.6 -3.5 0.2 -3.7C1 -4 2 -3.8 2.5 -3.2Z" stroke="#4d1adb" fill="none" stroke-width="5"></path></g><g transform="translate(121 470)"><path d="M11 -11.4C16.3 -8.7 24.1 -7.1 26.5 -3.2C28.9 0.7 26 7 21.3 9.5C16.5 12 10 10.7 4 14.4C-2 18.1 -7.5 26.9 -12.6 27.9C-17.6 28.9 -22.3 22.2 -25.7 15.3C-29.1 8.4 -31.3 1.2 -28.5 -3.3C-25.6 -7.8 -17.7 -9.8 -12.1 -12.5C-6.5 -15.2 -3.3 -18.7 -0.2 -18.5C2.9 -18.2 5.7 -14.2 11 -11.4Z" stroke="#4d1adb" fill="none" stroke-width="5"></path></g><g transform="translate(143 42)"><path d="M8.1 -11C9.3 -8.5 8.4 -4.9 9.7 -1.2C11 2.6 14.5 6.5 13.8 8.3C13.2 10.1 8.3 9.9 4.2 11.2C0.1 12.5 -3.3 15.4 -5.4 14.7C-7.6 14 -8.5 9.7 -11.4 5.9C-14.4 2.2 -19.5 -1.1 -19.5 -3.8C-19.5 -6.6 -14.4 -8.9 -10.3 -10.8C-6.2 -12.8 -3.1 -14.4 0.1 -14.6C3.4 -14.7 6.8 -13.4 8.1 -11Z" stroke="#4d1adb" fill="none" stroke-width="5"></path></g><g transform="translate(508 156)"><path d="M4.5 -6.2C5 -5 4 -2.8 4.1 -0.9C4.2 0.9 5.4 2.4 5.1 2.9C4.8 3.5 2.9 3.2 1.5 3.4C0.2 3.5 -0.8 4 -2 4.1C-3.2 4.2 -4.7 3.9 -5.8 2.9C-6.8 1.9 -7.4 0.3 -7 -1.1C-6.7 -2.5 -5.3 -3.6 -4 -4.7C-2.6 -5.7 -1.3 -6.8 0.4 -7.2C2 -7.6 4 -7.4 4.5 -6.2Z" stroke="#4d1adb" fill="none" stroke-width="5"></path></g><g transform="translate(613 424)"><path d="M9.6 -12.5C12.1 -9.3 13.5 -6 14.8 -2.1C16.2 1.8 17.4 6.3 16.4 10.8C15.3 15.2 12.1 19.7 7.7 21.4C3.4 23.1 -2.1 21.9 -7.3 20C-12.6 18.2 -17.6 15.6 -18.1 11.8C-18.7 8.1 -14.8 3.1 -13.9 -2.6C-13 -8.2 -15.2 -14.5 -13.4 -17.8C-11.6 -21 -5.8 -21.3 -1.1 -20C3.5 -18.6 7.1 -15.6 9.6 -12.5Z" stroke="#4d1adb" fill="none" stroke-width="5"></path></g><g transform="translate(722 224)"><path d="M18.1 -18.3C23 -17.5 26.1 -11.3 25.1 -6C24.1 -0.7 19.1 3.7 14.9 6.5C10.7 9.2 7.5 10.3 4.2 11.6C0.9 12.8 -2.4 14.3 -7.6 15C-12.8 15.7 -20 15.7 -21.6 12.6C-23.2 9.5 -19.3 3.4 -16.1 -0.7C-12.8 -4.8 -10.2 -7 -7.7 -8.2C-5.1 -9.4 -2.5 -9.7 2 -12.1C6.6 -14.6 13.3 -19.1 18.1 -18.3Z" stroke="#4d1adb" fill="none" stroke-width="5"></path></g><g transform="translate(495 42)"><path d="M5.3 -7.7C6.6 -5.2 7.1 -3.3 8.8 -0.5C10.4 2.2 13.2 5.7 13.2 9.2C13.1 12.6 10 16 7 15.6C3.9 15.2 0.7 11.1 -1.9 8.6C-4.5 6.2 -6.4 5.5 -8.9 3.9C-11.4 2.2 -14.4 -0.4 -14.2 -2.7C-14.1 -5 -10.8 -6.9 -7.9 -9.1C-5 -11.3 -2.5 -13.7 -0.2 -13.4C2 -13.1 4 -10.2 5.3 -7.7Z" stroke="#4d1adb" fill="none" stroke-width="5"></path></g><g transform="translate(342 549)"><path d="M3.2 -3.8C3.7 -3.4 3.2 -2 3.1 -0.8C2.9 0.3 3.1 1.1 3 2.2C2.9 3.3 2.6 4.7 1.9 4.7C1.3 4.7 0.3 3.2 -0.4 2.4C-1.2 1.6 -1.8 1.5 -2 1.2C-2.2 0.8 -2 0.2 -2.2 -0.6C-2.3 -1.5 -2.7 -2.6 -2.4 -3C-2.1 -3.4 -1 -3.1 0.2 -3.3C1.4 -3.4 2.7 -4.2 3.2 -3.8Z" stroke="#4d1adb" fill="none" stroke-width="5"></path></g><g transform="translate(78 568)"><path d="M6 -7C7.9 -5.6 9.5 -3.8 10.7 -1.3C11.8 1.2 12.5 4.4 11.8 7.9C11.1 11.4 9 15.3 5.3 18.3C1.5 21.4 -3.9 23.6 -8.9 22.6C-13.9 21.6 -18.3 17.4 -21.1 12.3C-23.9 7.3 -24.9 1.3 -22.4 -2.4C-19.9 -6.1 -13.8 -7.7 -9.5 -8.7C-5.2 -9.6 -2.6 -10 -0.3 -9.7C2.1 -9.4 4.1 -8.4 6 -7Z" stroke="#4d1adb" fill="none" stroke-width="5"></path></g><g transform="translate(748 544)"><path d="M6.7 -10C8.3 -6.6 9 -4.2 9.7 -1.5C10.4 1.1 11 3.9 10.3 6.7C9.6 9.5 7.5 12.2 5.1 12.2C2.8 12.2 0.2 9.5 -2.5 8.1C-5.2 6.6 -8 6.4 -9 5C-9.9 3.7 -9.1 1.1 -8.6 -1.5C-8.1 -4.1 -8 -6.7 -6.6 -10.1C-5.3 -13.6 -2.6 -17.7 -0.1 -17.6C2.5 -17.6 5.1 -13.3 6.7 -10Z" stroke="#4d1adb" fill="none" stroke-width="5"></path></g><g transform="translate(851 364)"><path d="M3 -2.9C4.5 -2.3 6.7 -1.9 7 -1.1C7.3 -0.2 5.7 1.1 4.8 2.7C3.8 4.4 3.4 6.3 2.3 7.1C1.1 7.9 -0.8 7.6 -2 6.7C-3.3 5.7 -4 4.2 -4.4 2.9C-4.8 1.5 -4.9 0.3 -5 -1.1C-5 -2.6 -5 -4.3 -4.2 -5C-3.4 -5.6 -1.7 -5.3 -0.5 -4.7C0.8 -4.2 1.5 -3.4 3 -2.9Z" stroke="#4d1adb" fill="none" stroke-width="5"></path></g><g transform="translate(653 117)"><path d="M13.2 -15.6C16.1 -13.2 17 -8.2 18.3 -2.9C19.6 2.4 21.4 7.9 20.4 13.7C19.3 19.6 15.5 25.7 10 27.9C4.5 30 -2.5 28.2 -6.2 23.9C-9.9 19.6 -10.2 12.8 -12.9 7.7C-15.5 2.5 -20.5 -1 -22.5 -6.4C-24.5 -11.8 -23.3 -19.2 -19.1 -21.3C-14.8 -23.5 -7.4 -20.5 -1.2 -19.1C5.1 -17.7 10.2 -18 13.2 -15.6Z" stroke="#4d1adb" fill="none" stroke-width="5"></path></g><g transform="translate(242 181)"><path d="M8.2 -10.1C10.8 -7.6 13.2 -5.2 13.2 -2.7C13.2 -0.2 10.8 2.3 8.9 4.8C7 7.2 5.7 9.6 3.3 11.5C1 13.4 -2.4 14.7 -4.7 13.6C-7 12.5 -8.3 9 -8.5 6.1C-8.7 3.2 -7.9 1 -8.1 -2C-8.3 -5 -9.4 -8.8 -8.2 -11.6C-7 -14.4 -3.5 -16.2 -0.4 -15.7C2.8 -15.3 5.6 -12.6 8.2 -10.1Z" stroke="#4d1adb" fill="none" stroke-width="5"></path></g><g transform="translate(389 52)"><path d="M8.2 -9.2C10.2 -8 11.3 -5.1 11.2 -2.5C11 0.1 9.6 2.4 8 4C6.4 5.6 4.5 6.4 2.5 7.3C0.5 8.2 -1.6 9.2 -3.3 8.7C-5 8.2 -6.2 6.3 -7.6 4.2C-9 2.2 -10.4 0 -9.7 -1.3C-8.9 -2.6 -5.9 -3 -3.9 -4.2C-2 -5.4 -1 -7.3 1 -8.5C3 -9.8 6.1 -10.3 8.2 -9.2Z" stroke="#4d1adb" fill="none" stroke-width="5"></path></g><g transform="translate(871 469)"><path d="M9.4 -11.4C13.9 -7.5 20.3 -6.1 22.1 -2.9C23.8 0.3 20.8 5.3 17.6 9.5C14.3 13.7 10.9 17.1 5.9 21C0.9 24.9 -5.7 29.3 -8.9 27C-12.2 24.7 -12.1 15.9 -11.9 9.9C-11.8 4 -11.4 1 -10.6 -1.5C-9.7 -4 -8.3 -6.1 -6.4 -10.5C-4.6 -14.9 -2.3 -21.7 0.1 -21.8C2.5 -21.9 5 -15.4 9.4 -11.4Z" stroke="#4d1adb" fill="none" stroke-width="5"></path></g><g transform="translate(543 261)"><path d="M2.5 -3.3C3 -2.5 3.1 -1.5 3.5 -0.5C3.9 0.6 4.5 1.8 4.1 2.2C3.6 2.5 2.1 2.1 1.1 2.1C0.1 2.1 -0.5 2.5 -1.1 2.5C-1.7 2.5 -2.3 2.1 -2.5 1.6C-2.6 1 -2.3 0.3 -2.2 -0.4C-2.1 -1.1 -2.2 -1.9 -1.8 -2.8C-1.5 -3.7 -0.8 -4.7 0.1 -4.8C1 -4.9 1.9 -4.2 2.5 -3.3Z" stroke="#4d1adb" fill="none" stroke-width="5"></path></g><g transform="translate(401 298)"><path d="M6.5 -7.5C8.9 -5.8 11.7 -4.2 12.5 -1.9C13.3 0.4 12.2 3.4 10.1 4.7C8 5.9 4.9 5.4 2.7 5.4C0.4 5.4 -0.9 5.8 -3.2 6.1C-5.5 6.4 -8.6 6.6 -10.3 5.2C-11.9 3.8 -12 0.9 -11.6 -2.2C-11.3 -5.2 -10.4 -8.3 -8.4 -10.1C-6.4 -11.9 -3.2 -12.4 -0.6 -11.8C2.1 -11.1 4.1 -9.2 6.5 -7.5Z" stroke="#4d1adb" fill="none" stroke-width="5"></path></g><g transform="translate(416 503)"><path d="M9 -12.1C12.4 -8 16.2 -5.7 16.2 -3.2C16.1 -0.7 12.2 2 9.9 5.4C7.6 8.7 6.8 12.7 3.6 16.8C0.4 21 -5.2 25.4 -9.6 24.6C-14.1 23.8 -17.3 17.8 -18.4 12.4C-19.4 6.9 -18.4 1.9 -17.2 -2.8C-16.1 -7.4 -14.8 -11.9 -12 -16.1C-9.1 -20.3 -4.5 -24.4 -0.8 -23.4C2.8 -22.4 5.7 -16.3 9 -12.1Z" stroke="#4d1adb" fill="none" stroke-width="5"></path></g></g></svg>