<svg id="visual" viewBox="0 0 900 600" width="900" height="600" xmlns="http://www.w3.org/2000/svg" xmlns:xlink="http://www.w3.org/1999/xlink" version="1.1"><g fill="#4d1adb"><circle r="14" cx="890" cy="180"></circle><circle r="1" cx="598" cy="110"></circle><circle r="6" cx="679" cy="444"></circle><circle r="8" cx="183" cy="578"></circle><circle r="0" cx="411" cy="585"></circle><circle r="1" cx="183" cy="333"></circle><circle r="11" cx="719" cy="306"></circle><circle r="0" cx="573" cy="525"></circle><circle r="8" cx="710" cy="595"></circle><circle r="9" cx="844" cy="421"></circle><circle r="5" cx="396" cy="505"></circle><circle r="12" cx="672" cy="203"></circle><circle r="11" cx="205" cy="92"></circle><circle r="4" cx="4" cy="589"></circle><circle r="3" cx="635" cy="15"></circle><circle r="2" cx="230" cy="111"></circle><circle r="5" cx="234" cy="152"></circle><circle r="8" cx="481" cy="516"></circle><circle r="1" cx="732" cy="545"></circle><circle r="6" cx="809" cy="69"></circle><circle r="7" cx="837" cy="54"></circle><circle r="3" cx="845" cy="264"></circle><circle r="10" cx="218" cy="555"></circle><circle r="7" cx="360" cy="43"></circle><circle r="7" cx="402" cy="478"></circle><circle r="2" cx="343" cy="452"></circle><circle r="7" cx="855" cy="545"></circle><circle r="12" cx="389" cy="144"></circle><circle r="1" cx="734" cy="241"></circle><circle r="9" cx="734" cy="16"></circle><circle r="0" cx="13" cy="123"></circle><circle r="10" cx="815" cy="242"></circle><circle r="12" cx="375" cy="580"></circle><circle r="11" cx="641" cy="348"></circle><circle r="0" cx="478" cy="311"></circle><circle r="8" cx="476" cy="214"></circle><circle r="4" cx="396" cy="351"></circle><circle r="12" cx="368" cy="496"></circle><circle r="12" cx="788" cy="567"></circle><circle r="1" cx="146" cy="238"></circle><circle r="10" cx="634" cy="506"></circle><circle r="7" cx="257" cy="354"></circle><circle r="10" cx="205" cy="475"></circle><circle r="8" cx="35" cy="32"></circle><circle r="5" cx="369" cy="463"></circle><circle r="6" cx="166" cy="138"></circle><circle r="8" cx="611" cy="480"></circle><circle r="5" cx="590" cy="335"></circle><circle r="8" cx="433" cy="283"></circle><circle r="8" cx="525" cy="41"></circle><circle r="12" cx="109" cy="328"></circle><circle r="5" cx="487" cy="381"></circle><circle r="7" cx="611" cy="283"></circle><circle r="12" cx="447" cy="439"></circle><circle r="7" cx="300" cy="590"></circle><circle r="9" cx="214" cy="307"></circle><circle r="1" cx="34" cy="65"></circle><circle r="3" cx="262" cy="306"></circle><circle r="3" cx="891" cy="376"></circle><circle r="4" cx="77" cy="208"></circle><circle r="5" cx="504" cy="224"></circle><circle r="9" cx="766" cy="541"></circle><circle r="2" cx="191" cy="199"></circle><circle r="11" cx="272" cy="1"></circle><circle r="8" cx="627" cy="398"></circle><circle r="9" cx="248" cy="503"></circle><circle r="10" cx="689" cy="372"></circle><circle r="10" cx="851" cy="211"></circle><circle r="8" cx="79" cy="303"></circle><circle r="11" cx="603" cy="209"></circle><circle r="2" cx="851" cy="331"></circle><circle r="2" cx="506" cy="328"></circle><circle r="9" cx="794" cy="188"></circle><circle r="12" cx="482" cy="52"></circle></g></svg>