<svg id="visual" viewBox="0 0 900 600" width="900" height="600" xmlns="http://www.w3.org/2000/svg" xmlns:xlink="http://www.w3.org/1999/xlink" version="1.1"><path d="M0 453L13.7 452C27.3 451 54.7 449 82 454.2C109.3 459.3 136.7 471.7 163.8 482.5C191 493.3 218 502.7 245.2 499C272.3 495.3 299.7 478.7 327 470.5C354.3 462.3 381.7 462.7 409 468C436.3 473.3 463.7 483.7 491 488.3C518.3 493 545.7 492 573 487.7C600.3 483.3 627.7 475.7 654.8 474.3C682 473 709 478 736.2 480.7C763.3 483.3 790.7 483.7 818 477.8C845.3 472 872.7 460 886.3 454L900 448L900 601L886.3 601C872.7 601 845.3 601 818 601C790.7 601 763.3 601 736.2 601C709 601 682 601 654.8 601C627.7 601 600.3 601 573 601C545.7 601 518.3 601 491 601C463.7 601 436.3 601 409 601C381.7 601 354.3 601 327 601C299.7 601 272.3 601 245.2 601C218 601 191 601 163.8 601C136.7 601 109.3 601 82 601C54.7 601 27.3 601 13.7 601L0 601Z" fill="#4d1adb" stroke-linecap="round" stroke-linejoin="miter"></path></svg>